<svg width="35" height="35" viewBox="0 0 24 24" fill="none" xmlns="http://www.w3.org/2000/svg">
<path d="M5.99997 19.0009H9.34615V13.9624C9.34615 13.7063 9.43277 13.4917 9.606 13.3184C9.77923 13.1452 9.9939 13.0586 10.25 13.0586H13.75C14.0061 13.0586 14.2207 13.1452 14.3939 13.3184C14.5672 13.4917 14.6538 13.7063 14.6538 13.9624V19.0009H18V10.1547C18 10.1034 17.9888 10.057 17.9663 10.0153C17.9439 9.97363 17.9134 9.93677 17.875 9.90472L12.1827 5.62587C12.1314 5.581 12.0705 5.55857 12 5.55857C11.9295 5.55857 11.8686 5.581 11.8173 5.62587L6.12497 9.90472C6.08652 9.93677 6.05607 9.97363 6.03362 10.0153C6.01119 10.057 5.99997 10.1034 5.99997 10.1547V19.0009ZM4.5 19.0009V10.1547C4.5 9.8685 4.56402 9.59735 4.69207 9.34127C4.82012 9.08519 4.99712 8.87429 5.22307 8.70859L10.9154 4.42014C11.2313 4.17911 11.5923 4.05859 11.9984 4.05859C12.4046 4.05859 12.7666 4.17911 13.0846 4.42014L18.7769 8.70859C19.0028 8.87429 19.1798 9.08519 19.3079 9.34127C19.4359 9.59735 19.5 9.8685 19.5 10.1547V19.0009C19.5 19.4098 19.3522 19.7621 19.0567 20.0576C18.7612 20.3531 18.4089 20.5008 18 20.5008H14.0577C13.8016 20.5008 13.5869 20.4142 13.4137 20.241C13.2404 20.0677 13.1538 19.8531 13.1538 19.597V14.5585H10.8461V19.597C10.8461 19.8531 10.7595 20.0677 10.5863 20.241C10.413 20.4142 10.1984 20.5008 9.94227 20.5008H5.99997C5.59101 20.5008 5.23877 20.3531 4.94327 20.0576C4.64776 19.7621 4.5 19.4098 4.5 19.0009Z" fill="currentColor"/>
</svg>
