<svg xmlns="http://www.w3.org/2000/svg"  viewBox="0 0 48 48" width="35" height="35" baseProfile="basic"><path d="M33,13H15c-4.963,0-9,4.037-9,9v13c0,4.963,4.037,9,9,9h18c4.963,0,9-4.037,9-9V22C42,17.037,37.963,13,33,13z"/><path fill="currentColor" d="M33,41H15c-4.418,0-8-3.582-8-8V15c0-4.418,3.582-8,8-8h18c4.418,0,8,3.582,8,8v18	C41,37.418,37.418,41,33,41z"/><path d="M33,42H15c-4.963,0-9-4.037-9-9V15c0-4.963,4.037-9,9-9h18c4.963,0,9,4.037,9,9v18C42,37.963,37.963,42,33,42z M15,8	c-3.859,0-7,3.141-7,7v18c0,3.859,3.141,7,7,7h18c3.859,0,7-3.141,7-7V15c0-3.859-3.141-7-7-7H15z"/><path d="M20,36.119c-0.516,0-1.03-0.136-1.5-0.406c-0.939-0.543-1.5-1.514-1.5-2.599v-9.229c0-1.085,0.561-2.057,1.501-2.599	c0.938-0.541,2.06-0.541,2.998,0.001l7.998,4.613c0.939,0.543,1.5,1.515,1.5,2.6c0,1.084-0.561,2.056-1.5,2.599l-7.998,4.613	C21.029,35.983,20.515,36.119,20,36.119z M20.004,22.883c-0.23,0-0.413,0.084-0.504,0.137c-0.15,0.087-0.5,0.345-0.5,0.866v9.229	c0,0.521,0.35,0.779,0.5,0.866s0.548,0.263,0.999,0l7.998-4.613c0.452-0.261,0.5-0.693,0.5-0.866c0-0.174-0.048-0.606-0.5-0.867	l-7.998-4.613C20.322,22.918,20.153,22.883,20.004,22.883z"/><rect width="34" height="2" x="7" y="15"/><rect width="2" height="10.372" x="17.216" y="6.439" transform="rotate(-32.471 18.216 11.625)"/><rect width="2" height="10.519" x="29.176" y="6.303" transform="rotate(-32.471 30.174 11.562)"/></svg>